<svg xmlns="http://www.w3.org/2000/svg" viewBox="0 0 760 260" role="img">
  <title>XSS trust boundaries</title>
  <rect fill="#f8fafc" width="760" height="260"/>
  <text x="380" y="26" text-anchor="middle" font-family="system-ui,sans-serif" font-size="14" font-weight="700" fill="#0f172a">Untrusted data in wrong sink = XSS</text>
  <rect x="48" y="44" width="120" height="56" rx="8" fill="#fee2e2" stroke="#dc2626"/>
  <text x="108" y="80" text-anchor="middle" font-size="12" font-weight="700" fill="#991b1b">Input</text>
  <path d="M168 72 L228 72" stroke="#64748b" stroke-width="2" marker-end="url(#m1)"/>
  <defs>
    <marker id="m1" markerWidth="8" markerHeight="8" refX="6" refY="4" orient="auto"><polygon points="0 0, 8 4, 0 8" fill="#64748b"/></marker>
  </defs>
  <rect x="228" y="44" width="140" height="56" rx="8" fill="#fef9c3" stroke="#ca8a04"/>
  <text x="298" y="80" text-anchor="middle" font-size="11" fill="#854d0e">Transform</text>
  <path d="M368 72 L428 72" stroke="#64748b" stroke-width="2" marker-end="url(#m1)"/>
  <rect x="428" y="44" width="140" height="56" rx="8" fill="#fecaca" stroke="#b91c1c"/>
  <text x="498" y="76" text-anchor="middle" font-size="11" font-weight="700" fill="#7f1d1d">HTML / attr</text>
  <text x="498" y="92" text-anchor="middle" font-size="10" fill="#991b1b">executable?</text>
  <path d="M568 72 L628 72" stroke="#64748b" stroke-width="2" marker-end="url(#m1)"/>
  <rect x="628" y="44" width="88" height="56" rx="8" fill="#dcfce7" stroke="#16a34a"/>
  <text x="672" y="80" text-anchor="middle" font-size="11" font-weight="700" fill="#166534">Defense</text>
  <text x="380" y="140" text-anchor="middle" font-size="12" fill="#475569">Server sanitize, context-aware escape, CSP safety net</text>
  <rect x="120" y="168" width="520" height="72" rx="10" fill="#e0f2fe" stroke="#0284c7"/>
  <text x="380" y="196" text-anchor="middle" font-size="11" fill="#0c4a6e">SEO: sitemap, canonical, structured data, field Vitals — auditable promises</text>
  <text x="380" y="218" text-anchor="middle" font-size="10" fill="#0369a1">Ship verifiable requirements, not guaranteed rank #1</text>
</svg>
